<?xml version="1.0" encoding="UTF-8" standalone="yes"?>
<svg xmlns="http://www.w3.org/2000/svg" viewBox="0 0 30 30" width="30" height="30" fill="#000000">
  <path d="M 3.7070312 2.2929688 L 2.2929688 3.7070312 L 26.292969 27.707031 L 27.707031 26.292969 L 25.414062 24 L 26 24 C 27.105 24 28 23.105 28 22 L 28 9 C 28 7.895 27.105 7 26 7 L 21.736328 7 C 20.978328 7 20.286266 6.5725312 19.947266 5.8945312 L 19.552734 5.1054688 C 19.213734 4.4284687 18.520672 4 17.763672 4 L 12.236328 4 C 11.478328 4 10.786266 4.4274688 10.447266 5.1054688 L 10.052734 5.8945312 C 9.7338908 6.5312779 9.0983988 6.9331938 8.3945312 6.9804688 L 3.7070312 2.2929688 z M 3.078125 7.234375 C 2.440125 7.568375 2 8.23 2 9 L 2 22 C 2 23.105 2.895 24 4 24 L 19.84375 24 L 17.40625 21.564453 C 16.65425 21.840453 15.847 22 15 22 C 11.14 22 8 18.86 8 15 C 8 14.153 8.1595469 13.34575 8.4355469 12.59375 L 3.078125 7.234375 z M 15 8 C 18.86 8 22 11.14 22 15 C 22 16.569464 21.469084 18.010598 20.591797 19.177734 L 19.166016 17.751953 C 19.689411 16.962052 20 16.018351 20 15 C 20 12.239 17.761 10 15 10 C 13.981649 10 13.037948 10.310589 12.248047 10.833984 L 10.822266 9.4082031 C 11.989402 8.5309161 13.430536 8 15 8 z M 24 9 C 24.552 9 25 9.448 25 10 C 25 10.552 24.552 11 24 11 C 23.448 11 23 10.552 23 10 C 23 9.448 23.448 9 24 9 z M 10.076172 14.234375 C 10.037172 14.485375 10 14.738 10 15 C 10 17.761 12.239 20 15 20 C 15.262 20 15.514625 19.962828 15.765625 19.923828 L 10.076172 14.234375 z"/>
</svg>
