<?xml version="1.0" standalone="no"?>
<!DOCTYPE svg PUBLIC "-//W3C//DTD SVG 20010904//EN"
 "http://www.w3.org/TR/2001/REC-SVG-20010904/DTD/svg10.dtd">
<svg version="1.0" xmlns="http://www.w3.org/2000/svg"
 width="300.000000pt" height="300.000000pt" viewBox="0 0 300.000000 300.000000"
 preserveAspectRatio="xMidYMid meet">

<g transform="translate(0.000000,300.000000) scale(0.100000,-0.100000)"
fill="#000000" stroke="none">
<path d="M1380 1612 c0 -10 223 -232 233 -232 4 0 7 6 6 13 -1 6 1 19 5 28 4
9 6 47 4 85 l-3 69 -35 3 c-19 2 -39 10 -43 18 -11 19 -81 18 -97 -1 -12 -14
-15 -13 -35 5 -22 21 -35 25 -35 12z m169 -66 c22 -24 27 -80 6 -74 -5 2 -8
13 -7 24 4 27 -24 56 -52 53 -32 -2 -38 0 -31 11 12 19 61 11 84 -14z m51 4
c0 -5 -4 -10 -10 -10 -5 0 -10 5 -10 10 0 6 5 10 10 10 6 0 10 -4 10 -10z"/>
<path d="M1372 1493 l3 -78 83 -3 c56 -2 82 1 77 8 -3 5 -19 10 -34 10 -34 0
-71 37 -71 71 0 23 -36 69 -54 69 -4 0 -6 -35 -4 -77z"/>
<path d="M1450 1491 c0 -13 29 -41 42 -41 7 0 1 11 -12 25 -26 27 -30 30 -30
16z"/>
</g>
</svg>
